<svg version="1.2" xmlns="http://www.w3.org/2000/svg" xmlns:xlink="http://www.w3.org/1999/xlink" overflow="visible" preserveAspectRatio="none" viewBox="0 -0.5058708414872797 47 47" width="38" height="38"><g>
	<g>
		<path d="M6.5,0C2.9,0,0,2.9,0,6.5c0,3.6,2.9,6.5,6.5,6.5S13,10,13,6.5C13,2.9,10.1,0,6.5,0z M6.5,10.9C4,10.9,2,8.9,2,6.5    C2,4,4,2,6.5,2s4.5,2,4.5,4.4C10.9,8.9,8.9,10.9,6.5,10.9z M23.5,0C19.9,0,17,2.9,17,6.5c0,3.6,2.9,6.5,6.5,6.5S30,10,30,6.5    C30,2.9,27.1,0,23.5,0z M23.5,10.9c-2.5,0-4.5-2-4.5-4.4C19,4,21,2,23.5,2c2.5,0,4.5,2,4.5,4.4C27.9,8.9,25.9,10.9,23.5,10.9z     M40.5,12.9c3.6,0,6.5-2.9,6.5-6.5C47,2.9,44.1,0,40.5,0C36.9,0,34,2.9,34,6.5C34,10,36.9,12.9,40.5,12.9z M40.5,2    C43,2,45,4,45,6.5c0,2.4-2,4.4-4.5,4.4c-2.5,0-4.5-2-4.5-4.4C36,4,38,2,40.5,2z M6.5,16.1C2.9,16.1,0,19,0,22.6    C0,26.1,2.9,29,6.5,29s6.5-2.9,6.5-6.5C13,19,10.1,16.1,6.5,16.1z M6.5,27C4,27,2,25,2,22.6c0-2.4,2-4.4,4.5-4.4s4.5,2,4.5,4.4    C10.9,25,8.9,27,6.5,27z M23.5,16.1c-3.6,0-6.5,2.9-6.5,6.5c0,3.6,2.9,6.5,6.5,6.5s6.5-2.9,6.5-6.5C30,19,27.1,16.1,23.5,16.1z     M23.5,27C21,27,19,25,19,22.6c0-2.4,2-4.4,4.5-4.4c2.5,0,4.5,2,4.5,4.4C27.9,25,25.9,27,23.5,27z M40.5,16.1    c-3.6,0-6.5,2.9-6.5,6.5c0,3.6,2.9,6.5,6.5,6.5c3.6,0,6.5-2.9,6.5-6.5C47,19,44.1,16.1,40.5,16.1z M40.5,27C38,27,36,25,36,22.6    c0-2.4,2-4.4,4.5-4.4c2.5,0,4.5,2,4.5,4.4C45,25,43,27,40.5,27z M6.5,33.1C2.9,33.1,0,36,0,39.5C0,43.1,2.9,46,6.5,46    s6.5-2.9,6.5-6.5C13,36,10.1,33.1,6.5,33.1z M6.5,44C4,44,2,42,2,39.5c0-2.4,2-4.4,4.5-4.4s4.5,2,4.5,4.4C10.9,42,8.9,44,6.5,44z     M23.5,33.1c-3.6,0-6.5,2.9-6.5,6.5c0,3.6,2.9,6.5,6.5,6.5s6.5-2.9,6.5-6.5C30,36,27.1,33.1,23.5,33.1z M23.5,44    C21,44,19,42,19,39.5c0-2.4,2-4.4,4.5-4.4c2.5,0,4.5,2,4.5,4.4C27.9,42,25.9,44,23.5,44z M40.5,33.1c-3.6,0-6.5,2.9-6.5,6.5    c0,3.6,2.9,6.5,6.5,6.5c3.6,0,6.5-2.9,6.5-6.5C47,36,44.1,33.1,40.5,33.1z M40.5,44C38,44,36,42,36,39.5c0-2.4,2-4.4,4.5-4.4    c2.5,0,4.5,2,4.5,4.4C45,42,43,44,40.5,44z" style="fill: rgb(0, 145, 220);" vector-effect="non-scaling-stroke"/>
	</g>
</g><g/></svg>