<svg version="1.2" xmlns="http://www.w3.org/2000/svg" xmlns:xlink="http://www.w3.org/1999/xlink" overflow="visible" preserveAspectRatio="none" viewBox="0 -2.992957746478872 50 50" width="38" height="38"><g><g xmlns:default="http://www.w3.org/2000/svg">
	<g>
		<path d="M47,5c0-1.7-1.3-3-3-3h-7V1c0-0.6-0.4-1-1-1s-1,0.4-1,1v1H15V1c0-0.6-0.4-1-1-1c-0.6,0-1,0.4-1,1v1H7C5.3,2,4,3.3,4,5H3    C1.3,5,0,6.3,0,8v33c0,1.7,1.3,3,3,3h44c1.7,0,3-1.3,3-3V8C50,6.3,48.7,5,47,5z M37,4h7c0.6,0,1,0.4,1,1h-8V4z M15,4h20v1H15V4z     M7,4h6v1H6C6,4.4,6.4,4,7,4z M48,41c0,0.6-0.4,1-1,1H3c-0.6,0-1-0.4-1-1V8c0-0.6,0.4-1,1-1h1h9v3c0,0.6,0.4,1,1,1    c0.6,0,1-0.4,1-1V7h20v3c0,0.6,0.4,1,1,1s1-0.4,1-1V7h10c0.6,0,1,0.4,1,1V41z M11.8,16.8c-0.4-0.4-1-0.4-1.4,0    c-0.4,0.4-0.4,1,0,1.4l1.3,1.3c0.2,0.2,0.5,0.3,0.7,0.3s0.5-0.1,0.7-0.3c0.4-0.4,0.4-1,0-1.4L11.8,16.8z M20.8,16.8    c-0.4-0.4-1-0.4-1.4,0c-0.4,0.4-0.4,1,0,1.4l1.3,1.3c0.2,0.2,0.5,0.3,0.7,0.3s0.5-0.1,0.7-0.3c0.4-0.4,0.4-1,0-1.4L20.8,16.8z     M29.8,16.8c-0.4-0.4-1-0.4-1.4,0c-0.4,0.4-0.4,1,0,1.4l1.3,1.3c0.2,0.2,0.5,0.3,0.7,0.3s0.5-0.1,0.7-0.3c0.4-0.4,0.4-1,0-1.4    L29.8,16.8z M38.8,16.8c-0.4-0.4-1-0.4-1.4,0c-0.4,0.4-0.4,1,0,1.4l1.3,1.3c0.2,0.2,0.5,0.3,0.7,0.3s0.5-0.1,0.7-0.3    c0.4-0.4,0.4-1,0-1.4L38.8,16.8z M11.8,24.8c-0.4-0.4-1-0.4-1.4,0c-0.4,0.4-0.4,1,0,1.4l1.3,1.3c0.2,0.2,0.5,0.3,0.7,0.3    s0.5-0.1,0.7-0.3c0.4-0.4,0.4-1,0-1.4L11.8,24.8z M20.8,24.8c-0.4-0.4-1-0.4-1.4,0c-0.4,0.4-0.4,1,0,1.4l1.3,1.3    c0.2,0.2,0.5,0.3,0.7,0.3s0.5-0.1,0.7-0.3c0.4-0.4,0.4-1,0-1.4L20.8,24.8z M29.8,24.8c-0.4-0.4-1-0.4-1.4,0c-0.4,0.4-0.4,1,0,1.4    l1.3,1.3c0.2,0.2,0.5,0.3,0.7,0.3s0.5-0.1,0.7-0.3c0.4-0.4,0.4-1,0-1.4L29.8,24.8z M38.8,24.8c-0.4-0.4-1-0.4-1.4,0    c-0.4,0.4-0.4,1,0,1.4l1.3,1.3c0.2,0.2,0.5,0.3,0.7,0.3s0.5-0.1,0.7-0.3c0.4-0.4,0.4-1,0-1.4L38.8,24.8z M11.8,32.8    c-0.4-0.4-1-0.4-1.4,0c-0.4,0.4-0.4,1,0,1.4l1.3,1.3c0.2,0.2,0.5,0.3,0.7,0.3s0.5-0.1,0.7-0.3c0.4-0.4,0.4-1,0-1.4L11.8,32.8z     M20.8,32.8c-0.4-0.4-1-0.4-1.4,0c-0.4,0.4-0.4,1,0,1.4l1.3,1.3c0.2,0.2,0.5,0.3,0.7,0.3s0.5-0.1,0.7-0.3c0.4-0.4,0.4-1,0-1.4    L20.8,32.8z M29.8,32.8c-0.4-0.4-1-0.4-1.4,0c-0.4,0.4-0.4,1,0,1.4l1.3,1.3c0.2,0.2,0.5,0.3,0.7,0.3s0.5-0.1,0.7-0.3    c0.4-0.4,0.4-1,0-1.4L29.8,32.8z M38.8,32.8c-0.4-0.4-1-0.4-1.4,0c-0.4,0.4-0.4,1,0,1.4l1.3,1.3c0.2,0.2,0.5,0.3,0.7,0.3    s0.5-0.1,0.7-0.3c0.4-0.4,0.4-1,0-1.4L38.8,32.8z" style="fill: rgb(0, 145, 220);" vector-effect="non-scaling-stroke"/>
	</g>
</g></g></svg>