<svg version="1.2" xmlns="http://www.w3.org/2000/svg" xmlns:xlink="http://www.w3.org/1999/xlink" overflow="visible" preserveAspectRatio="none" viewBox="-9.996 0 51 51" width="38" height="38"><g>
	<g>
		<path d="M31,5.5C31,1.9,23.2,0,15.5,0C7.8,0,0,1.9,0,5.5C0,5.7,0,5.8,0.1,6H0v40h0.1c0.7,3.3,8.1,5,15.4,5c7.3,0,14.7-1.7,15.4-5    H31V6h-0.1C31,5.8,31,5.7,31,5.5z M15.5,2C24.2,2,29,4.3,29,5.5C29,6.7,24.2,9,15.5,9C6.8,9,2,6.7,2,5.5C2,4.3,6.8,2,15.5,2z     M29,8.3v34.3c-2.8-1.8-8.2-2.7-13.5-2.7S4.8,40.9,2,42.7V8.3c2.8,1.8,8.2,2.7,13.5,2.7S26.2,10.1,29,8.3z M15.5,49    C6.8,49,2,46.7,2,45.5C2,44.3,6.8,42,15.5,42c8.7,0,13.5,2.3,13.5,3.5C29,46.7,24.2,49,15.5,49z" style="fill: rgb(0, 145, 220);" vector-effect="non-scaling-stroke"/>
	</g>
</g><g/></svg>