<?xml version="1.0" encoding="utf-8"?>
<!-- Generator: Adobe Illustrator 16.0.0, SVG Export Plug-In . SVG Version: 6.00 Build 0)  -->
<!DOCTYPE svg PUBLIC "-//W3C//DTD SVG 1.1//EN" "http://www.w3.org/Graphics/SVG/1.1/DTD/svg11.dtd">
<svg version="1.1" id="Layer_1" xmlns="http://www.w3.org/2000/svg" xmlns:xlink="http://www.w3.org/1999/xlink" x="0px" y="0px"
	 width="352.667px" height="154.688px" viewBox="0 0 352.667 154.688" enable-background="new 0 0 352.667 154.688"
	 xml:space="preserve">
<linearGradient id="SVGID_1_" gradientUnits="userSpaceOnUse" x1="195.3501" y1="-70.9011" x2="195.3501" y2="-218.0764" gradientTransform="matrix(1 0 0 -1 -133 -67.312)">
	<stop  offset="0" style="stop-color:#00C5ED"/>
	<stop  offset="0.0939" style="stop-color:#00AEE6"/>
	<stop  offset="0.2402" style="stop-color:#0091DC"/>
	<stop  offset="0.396" style="stop-color:#007AD5"/>
	<stop  offset="0.5636" style="stop-color:#006AD0"/>
	<stop  offset="0.7511" style="stop-color:#0060CD"/>
	<stop  offset="1" style="stop-color:#005DCC"/>
</linearGradient>
<path fill="url(#SVGID_1_)" d="M89.418,124.631h26.514c2.796,0,5.063-2.269,5.063-5.064V35.443c0-1.918-1.083-3.671-2.8-4.527
	L64.615,4.124c-0.712-0.356-1.489-0.535-2.264-0.535c-0.776,0-1.552,0.179-2.265,0.535L6.506,30.915
	c-1.715,0.856-2.8,2.609-2.8,4.527v84.123V145.7c0,1.755,0.91,3.383,2.402,4.306c0.813,0.504,1.737,0.758,2.663,0.758
	c0.771,0,1.548-0.18,2.263-0.535l51.301-25.598H89.418z"/>
<path fill="#00FFFF" d="M50.147,124.631H38.215c-1.258,0-2.278-1.021-2.278-2.279V84.496c0-0.863,0.487-1.652,1.26-2.037
	l24.111-12.058c0.32-0.159,0.67-0.24,1.019-0.24c0.349,0,0.698,0.081,1.019,0.24l24.111,12.058c0.772,0.385,1.26,1.174,1.26,2.037
	v37.854v11.76c0,0.79-0.41,1.523-1.081,1.938c-0.365,0.227-0.781,0.342-1.198,0.342c-0.347,0-0.696-0.08-1.018-0.241l-23.085-11.519
	H50.147z"/>
<rect x="153.272" y="86.348" fill="#00D7ED" width="10.912" height="38.283"/>
<circle fill="#00D7ED" cx="158.729" cy="77.23" r="6.973"/>
<rect x="336.353" y="86.348" fill="#006BD6" width="10.912" height="38.283"/>
<circle fill="#006BD6" cx="341.81" cy="77.23" r="6.974"/>
<path fill="#00D7ED" d="M210.669,86.348c-5.055,0-9.633,2.04-12.963,5.34c-3.328-3.3-7.904-5.34-12.963-5.34
	c-10.168,0-18.417,8.244-18.417,18.419v19.864h10.915v-19.864c0-4.146,3.354-7.509,7.502-7.509c4.149,0,7.51,3.363,7.51,7.509
	v19.864h10.91v-19.864c0-4.146,3.36-7.509,7.506-7.509s7.508,3.363,7.508,7.509v19.864h10.91v-19.864
	C229.087,94.592,220.841,86.348,210.669,86.348z"/>
<path fill="#006BD6" d="M315.794,86.348c-5.055,0-9.633,2.04-12.963,5.34c-3.33-3.3-7.906-5.34-12.961-5.34
	c-10.172,0-18.42,8.244-18.42,18.419v19.864h10.911v-19.864c0-4.146,3.361-7.509,7.509-7.509c4.145,0,7.506,3.363,7.506,7.509
	v19.864h10.912v-19.864c0-4.146,3.357-7.509,7.506-7.509c4.145,0,7.504,3.363,7.504,7.509v19.864h10.912v-19.864
	C334.21,94.592,325.964,86.348,315.794,86.348z"/>
<path fill="#006BD6" d="M250.269,86.348c-10.512,0-19.037,8.523-19.037,19.039c0,10.514,8.525,19.038,19.037,19.038
	s19.039-8.524,19.039-19.038C269.308,94.871,260.78,86.348,250.269,86.348z M250.269,113.565c-4.518,0-8.178-3.661-8.178-8.179
	c0-4.519,3.66-8.18,8.178-8.18s8.178,3.661,8.178,8.18C258.446,109.904,254.787,113.565,250.269,113.565z"/>
</svg>
