<svg version="1.2" xmlns="http://www.w3.org/2000/svg" xmlns:xlink="http://www.w3.org/1999/xlink" overflow="visible" preserveAspectRatio="none" viewBox="0 0 125 157" xml:space="preserve" y="0px" x="0px" id="Layer_1_1569158794644" width="35.70967741935484" height="45"><g transform="translate(1, 1)"><style type="text/css">
	.st0_1569158794644{fill:url(#SVGID_1__1569158794644);}
	.st1_1569158794644{fill:#00FFFF;}
</style><g>
	
		<linearGradient gradientTransform="matrix(1 0 0 1 -133 -1027.6709)" y2="1178.8889" x2="194.996" y1="1031.7129" x1="194.996" gradientUnits="userSpaceOnUse" id="SVGID_1__1569158794644" vector-effect="non-scaling-stroke">
		<stop style="stop-color:#00C5ED" offset="0" vector-effect="non-scaling-stroke"/>
		<stop style="stop-color:#00AEE6" offset="9.390000e-02" vector-effect="non-scaling-stroke"/>
		<stop style="stop-color:#0091DC" offset="0.2402" vector-effect="non-scaling-stroke"/>
		<stop style="stop-color:#007AD5" offset="0.396" vector-effect="non-scaling-stroke"/>
		<stop style="stop-color:#006AD0" offset="0.5636" vector-effect="non-scaling-stroke"/>
		<stop style="stop-color:#0060CD" offset="0.7511" vector-effect="non-scaling-stroke"/>
		<stop style="stop-color:#005DCC" offset="1" vector-effect="non-scaling-stroke"/>
	</linearGradient>
	<path d="M89.1,125.1h26.5c2.8,0,5.1-2.3,5.1-5.1V35.9c0-1.9-1.1-3.7-2.8-4.5L64.3,4.6C63.5,4.2,62.8,4,62,4   s-1.6,0.2-2.3,0.5L6.2,31.4c-1.7,0.9-2.8,2.6-2.8,4.5V120v26.1c0,1.8,0.9,3.4,2.4,4.3c0.8,0.5,1.7,0.8,2.7,0.8   c0.8,0,1.5-0.2,2.3-0.5L62,125.1L89.1,125.1L89.1,125.1z" class="st0_1569158794644" vector-effect="non-scaling-stroke"/>
	<path d="M49.8,125.1H37.9c-1.3,0-2.3-1-2.3-2.3V84.9c0-0.9,0.5-1.7,1.3-2L61,70.9c0.3-0.2,0.7-0.2,1-0.2s0.7,0.1,1,0.2   l24.1,12.1c0.8,0.4,1.3,1.2,1.3,2v37.9v11.8c0,0.8-0.4,1.5-1.1,1.9c-0.4,0.2-0.8,0.3-1.2,0.3c-0.3,0-0.7-0.1-1-0.2L62,125.1H49.8z" class="st1_1569158794644" vector-effect="non-scaling-stroke"/>
</g></g></svg>