<?xml version="1.0" encoding="utf-8"?>
<!-- Generator: Adobe Illustrator 23.0.1, SVG Export Plug-In . SVG Version: 6.00 Build 0)  -->
<svg version="1.1" id="Layer_1" xmlns="http://www.w3.org/2000/svg" xmlns:xlink="http://www.w3.org/1999/xlink" x="0px" y="0px"
	 viewBox="0 0 16 16" style="enable-background:new 0 0 16 16;" xml:space="preserve">
<style type="text/css">
	.st0{fill:#6B6B6B;}
</style>
<g>
	<path class="st0" d="M7.4,5.5c0-0.6-0.5-1.1-1.1-1.1H6.2l1.2,1.2V5.5z"/>
	<path class="st0" d="M11.9,7.7V5.5c0-0.6-0.5-1.1-1.1-1.1H9.7c-0.6,0-1.1,0.5-1.1,1.1v1.2l1,1H11.9z"/>
	<path class="st0" d="M10.5,10.5L8.8,8.8h0L7.4,7.5v0L4.6,4.6c0,0,0,0,0,0L1.8,1.8L0.9,2.7l3.2,3.2v1.8h1.8L7,8.8H4.1
		C3.5,8.8,3,8.3,3,7.7V6.6c0-0.3-0.2-0.6-0.6-0.6H1.9c-0.3,0-0.6,0.2-0.6,0.6v5H3v-1.1h5.7l4.6,4.6l0.9-0.9L10.5,10.5L10.5,10.5z"/>
	<path class="st0" d="M14.1,6.1h-0.6c-0.3,0-0.6,0.2-0.6,0.6v0.6v0.6c0,0.6-0.5,1.1-1.1,1.1h-1.2l1.7,1.7H13v0.7l0.4,0.4h1.2v-5
		C14.7,6.3,14.4,6.1,14.1,6.1z"/>
</g>
</svg>
