<?xml version="1.0" encoding="utf-8"?>
<!-- Generator: Adobe Illustrator 23.0.1, SVG Export Plug-In . SVG Version: 6.00 Build 0)  -->
<svg version="1.1" id="Layer_1" xmlns="http://www.w3.org/2000/svg" xmlns:xlink="http://www.w3.org/1999/xlink" x="0px" y="0px"
	 viewBox="0 0 16 16" style="enable-background:new 0 0 16 16;" xml:space="preserve">
<style type="text/css">
	.st0{fill:#6B6B6B;}
</style>
<g>
	<path class="st0" d="M7.7,3.7C7.7,2.7,6.9,2,6,2C5.2,2,4.5,2.6,4.4,3.4l1.9,1.9C7.1,5.2,7.7,4.5,7.7,3.7z"/>
	<path class="st0" d="M10,5.3c0.9,0,1.7-0.7,1.7-1.7C11.7,2.7,10.9,2,10,2S8.3,2.7,8.3,3.7C8.3,4.6,9.1,5.3,10,5.3z"/>
	<circle class="st0" cx="13" cy="6.3" r="1.7"/>
	<path class="st0" d="M13,13.8L6.6,7.5c0,0,0,0,0,0L1.8,2.6L0.9,3.5l1.3,1.3C1.7,5.1,1.3,5.7,1.3,6.3C1.3,7.3,2.1,8,3,8
		c0.6,0,1.2-0.4,1.5-0.9l1.3,1.3c-0.4,0.5-0.8,1-1.3,1.5c-0.9,0.9-2,1.8-1.8,3.2c0.2,0.7,0.7,1.3,1.5,1.5c0.5,0.1,2-0.3,3.7-0.3H8
		c1.7,0,3.2,0.4,3.7,0.3c0.1,0,0.1,0,0.2-0.1l1.4,1.4l0.9-0.9L13,13.8C12.9,13.8,12.9,13.8,13,13.8z"/>
	<path class="st0" d="M11.6,9.9C11,9.2,10.5,8.7,9.9,8C9.6,7.6,9.2,7.3,8.7,7.1C8.7,7.1,8.6,7,8.5,7C8.3,7,8.2,7,8,7c0,0,0,0,0,0
		l5.3,5.3C13,11.3,12.2,10.6,11.6,9.9z"/>
</g>
</svg>
