<svg version="1.2" xmlns="http://www.w3.org/2000/svg" xmlns:xlink="http://www.w3.org/1999/xlink" overflow="visible" preserveAspectRatio="none" viewBox="0 0 223.8000030517578 230" xml:space="preserve" y="0px" x="0px" id="Layer_1_1568475789310" width="477.99999999999994" height="493.1402714932127"><g transform="translate(1, 1)"><style type="text/css">
	.st0_1568475789310{fill:#006BD6;}
	.st1_1568475789310{fill:#FFFFFF;}
</style><path d="M168.9,49.4c-2.2-9.8,3.6-19.7,13.3-22.5l0,0c0.1,0,0.2-0.1,0.4-0.1c0.1,0,0.3-0.1,0.4-0.1l0,0  c9.8-2.4,19.8,3.2,22.8,12.8l16.1-4.3c-5.4-18.5-24.8-29.5-43.5-24.5c-18.8,5-30,24.2-25.5,43L168.9,49.4z" class="st0_1568475789310" vector-effect="non-scaling-stroke"/><circle r="32.2" cy="59.3" cx="39.4" class="st1_1568475789310" vector-effect="non-scaling-stroke"/><path d="M173.4,126c5.4,23-8,46.3-30.7,53.1l0,0c-0.3,0.1-0.6,0.2-0.9,0.3c-0.3,0.1-0.6,0.1-0.9,0.2l0,0  c-23,5.9-46.5-7.1-53.8-29.6l-37.6,10.5c13.2,43.4,58.8,68.7,102.8,56.5c44-12.2,70-57.5,58.8-101.5L173.4,126z" class="st0_1568475789310" vector-effect="non-scaling-stroke"/></g></svg>