<svg version="1.2" xmlns="http://www.w3.org/2000/svg" xmlns:xlink="http://www.w3.org/1999/xlink" overflow="visible" preserveAspectRatio="none" viewBox="0 0 803 728" xml:space="preserve" height="56" width="61.78512396694215" y="0px" x="0px" id="Layer_1_1569337775005"><g transform="translate(1, 1)"><g>
	<g>
		<path d="M518.085,569.15h115.188c12.146,0,21.998-9.856,21.998-21.993V181.695c0-8.333-4.708-15.948-12.166-19.668    L410.334,45.637c-3.092-1.54-6.466-2.325-9.834-2.325s-6.745,0.785-9.843,2.325L157.889,162.026    c-7.45,3.721-12.16,11.336-12.16,19.668v365.458V660.68c0,7.624,3.954,14.696,10.433,18.706c3.534,2.198,7.547,3.301,11.569,3.301    c3.352,0,6.724-0.789,9.834-2.326L400.432,569.15H518.085z" fill="#00EAEA" vector-effect="non-scaling-stroke"/>
	</g>
	<path d="M454.863,288.58c-2.181-9.808,3.623-19.66,13.322-22.477l0,0c0.128-0.038,0.246-0.089,0.383-0.115   c0.125-0.042,0.253-0.063,0.389-0.093l0,0c9.81-2.405,19.753,3.241,22.765,12.829l16.063-4.297   c-5.412-18.549-24.751-29.511-43.515-24.497c-18.766,5.023-30.046,24.166-25.469,42.951L454.863,288.58z" fill="#006BD6" vector-effect="non-scaling-stroke"/>
	<circle r="32.235" cy="298.491" cx="325.442" fill="#FFFFFF" vector-effect="non-scaling-stroke"/>
	<path d="M459.352,365.161c5.363,23.003-8.026,46.282-30.724,53.121l0,0c-0.314,0.09-0.594,0.22-0.899,0.3   c-0.314,0.09-0.611,0.118-0.925,0.208l0,0c-22.969,5.882-46.464-7.134-53.762-29.581l-37.622,10.473   c13.169,43.441,58.827,68.708,102.775,56.473c43.952-12.235,69.962-57.485,58.784-101.463L459.352,365.161z" fill="#006BD6" vector-effect="non-scaling-stroke"/>
</g></g></svg>